<?xml version="1.0" encoding="UTF-8" standalone="no"?>
<svg width="1800px" height="100px" viewBox="0 0 1800 100" version="1.1" xmlns="http://www.w3.org/2000/svg" xmlns:xlink="http://www.w3.org/1999/xlink">
    <!-- Generator: Sketch 3.8.1 (29687) - http://www.bohemiancoding.com/sketch -->
    <title>spinner copy</title>
    <desc>Created with Sketch.</desc>
    <defs></defs>
    <g id="Page-1" stroke="none" stroke-width="1" fill="none" fill-rule="evenodd">
        <g id="spinner-copy" fill="#F7A100">
            <rect id="Rectangle-1-Copy-49" x="72" y="36" width="28.2299995" height="28.2299995" rx="12"></rect>
            <rect id="Rectangle-1-Copy-50" x="172" y="36" width="28.2299995" height="28.2299995" rx="14"></rect>
            <rect id="Rectangle-1-Copy-51" x="272" y="36" width="28.2299995" height="28.2299995" rx="14"></rect>
            <rect id="Rectangle-1-Copy-52" x="372" y="36" width="28.2299995" height="28.2299995" rx="14"></rect>
            <rect id="Rectangle-1-Copy-53" x="472" y="36" width="28.2299995" height="28.2299995" rx="12"></rect>
            <rect id="Rectangle-1-Copy-54" x="572" y="36" width="28.2299995" height="28.2299995" rx="10"></rect>
            <rect id="Rectangle-1-Copy-55" x="672" y="36" width="28.2299995" height="28.2299995" rx="8"></rect>
            <rect id="Rectangle-1-Copy-56" x="772" y="36" width="28.2299995" height="28.2299995" rx="6"></rect>
            <rect id="Rectangle-1-Copy-57" x="872" y="36" width="28.2299995" height="28.2299995" rx="4"></rect>
            <rect id="Rectangle-1-Copy-58" x="972" y="36" width="28.2299995" height="28.2299995" rx="2"></rect>
            <rect id="Rectangle-1-Copy-59" x="1072" y="36" width="28.2299995" height="28.2299995"></rect>
            <rect id="Rectangle-1-Copy-60" x="1172" y="36" width="28.2299995" height="28.2299995"></rect>
            <rect id="Rectangle-1-Copy-61" x="1272" y="36" width="28.2299995" height="28.2299995"></rect>
            <rect id="Rectangle-1-Copy-62" x="1372" y="36" width="28.2299995" height="28.2299995" rx="2"></rect>
            <rect id="Rectangle-1-Copy-63" x="1472" y="36" width="28.2299995" height="28.2299995" rx="4"></rect>
            <rect id="Rectangle-1-Copy-64" x="1572" y="36" width="28.2299995" height="28.2299995" rx="6"></rect>
            <rect id="Rectangle-1-Copy-65" x="1672" y="36" width="28.2299995" height="28.2299995" rx="8"></rect>
            <rect id="Rectangle-1-Copy-66" x="1772" y="36" width="28.2299995" height="28.2299995" rx="10"></rect>
            <rect id="Rectangle-1" x="0" y="36" width="28.2299995" height="28.2299995"></rect>
            <rect id="Rectangle-1-Copy" x="100" y="36" width="28.2299995" height="28.2299995" rx="2"></rect>
            <rect id="Rectangle-1-Copy-2" x="200" y="36" width="28.2299995" height="28.2299995" rx="4"></rect>
            <rect id="Rectangle-1-Copy-3" x="300" y="36" width="28.2299995" height="28.2299995" rx="6"></rect>
            <rect id="Rectangle-1-Copy-4" x="400" y="36" width="28.2299995" height="28.2299995" rx="8"></rect>
            <rect id="Rectangle-1-Copy-5" x="500" y="36" width="28.2299995" height="28.2299995" rx="10"></rect>
            <rect id="Rectangle-1-Copy-6" x="600" y="36" width="28.2299995" height="28.2299995" rx="12"></rect>
            <rect id="Rectangle-1-Copy-7" x="700" y="36" width="28.2299995" height="28.2299995" rx="14"></rect>
            <rect id="Rectangle-1-Copy-8" x="800" y="36" width="28.2299995" height="28.2299995" rx="14"></rect>
            <rect id="Rectangle-1-Copy-9" x="900" y="36" width="28.2299995" height="28.2299995" rx="14"></rect>
            <rect id="Rectangle-1-Copy-10" x="1000" y="36" width="28.2299995" height="28.2299995" rx="12"></rect>
            <rect id="Rectangle-1-Copy-11" x="1100" y="36" width="28.2299995" height="28.2299995" rx="10"></rect>
            <rect id="Rectangle-1-Copy-12" x="1200" y="36" width="28.2299995" height="28.2299995" rx="8"></rect>
            <rect id="Rectangle-1-Copy-13" x="1300" y="36" width="28.2299995" height="28.2299995" rx="6"></rect>
            <rect id="Rectangle-1-Copy-14" x="1400" y="36" width="28.2299995" height="28.2299995" rx="4"></rect>
            <rect id="Rectangle-1-Copy-15" x="1500" y="36" width="28.2299995" height="28.2299995" rx="2"></rect>
            <rect id="Rectangle-1-Copy-16" x="1600" y="36" width="28.2299995" height="28.2299995"></rect>
            <rect id="Rectangle-1-Copy-17" x="1700" y="36" width="28.2299995" height="28.2299995"></rect>
            <rect id="Rectangle-1-Copy-20" x="36" y="36" width="28.2299995" height="28.2299995" rx="6"></rect>
            <rect id="Rectangle-1-Copy-21" x="136" y="36" width="28.2299995" height="28.2299995" rx="8"></rect>
            <rect id="Rectangle-1-Copy-22" x="236" y="36" width="28.2299995" height="28.2299995" rx="10"></rect>
            <rect id="Rectangle-1-Copy-23" x="336" y="36" width="28.2299995" height="28.2299995" rx="12"></rect>
            <rect id="Rectangle-1-Copy-24" x="436" y="36" width="28.2299995" height="28.2299995" rx="14"></rect>
            <rect id="Rectangle-1-Copy-25" x="536" y="36" width="28.2299995" height="28.2299995" rx="14"></rect>
            <rect id="Rectangle-1-Copy-26" x="636" y="36" width="28.2299995" height="28.2299995" rx="14"></rect>
            <rect id="Rectangle-1-Copy-27" x="736" y="36" width="28.2299995" height="28.2299995" rx="12"></rect>
            <rect id="Rectangle-1-Copy-28" x="836" y="36" width="28.2299995" height="28.2299995" rx="10"></rect>
            <rect id="Rectangle-1-Copy-29" x="936" y="36" width="28.2299995" height="28.2299995" rx="8"></rect>
            <rect id="Rectangle-1-Copy-30" x="1036" y="36" width="28.2299995" height="28.2299995" rx="6"></rect>
            <rect id="Rectangle-1-Copy-31" x="1136" y="36" width="28.2299995" height="28.2299995" rx="4"></rect>
            <rect id="Rectangle-1-Copy-32" x="1236" y="36" width="28.2299995" height="28.2299995" rx="2"></rect>
            <rect id="Rectangle-1-Copy-33" x="1336" y="36" width="28.2299995" height="28.2299995"></rect>
            <rect id="Rectangle-1-Copy-34" x="1436" y="36" width="28.2299995" height="28.2299995"></rect>
            <rect id="Rectangle-1-Copy-35" x="1536" y="36" width="28.2299995" height="28.2299995"></rect>
            <rect id="Rectangle-1-Copy-36" x="1636" y="36" width="28.2299995" height="28.2299995" rx="2"></rect>
            <rect id="Rectangle-1-Copy-37" x="1736" y="36" width="28.2299995" height="28.2299995" rx="4"></rect>
        </g>
    </g>
</svg>